<svg xmlns="http://www.w3.org/2000/svg" viewBox="-10 -15 610 460">
  <defs>
    <style>
      .cls-1 {
        fill: none;
        stroke: #e5e7eb;
        stroke-width: 40px;
      }
    </style>
  </defs>
      <path class="cls-1" d="M393,329V201a96,96,0,0,0-192,0V329m-96-31.5V172.6A67.52,67.52,0,0,0,37.4,105,28.38,28.38,0,0,1,9,76.6V41A32,32,0,0,1,41,9H553a32,32,0,0,1,32,32V76.6A28.38,28.38,0,0,1,556.6,105,67.58,67.58,0,0,0,489,172.6V297.5M315.5,334.9C338,350.4,365.5,361,393,361c26.9,0,55.4-10.8,77.4-26.1h0a31.86,31.86,0,0,1,39.2,1.7,126.3,126.3,0,0,0,50.6,25.2,32,32,0,0,1-14.5,62.3c-24.5-5.7-44.9-16.5-58.2-25C458.5,414.7,426,425,393,425c-31.9,0-60.6-9.9-80.4-18.9-5.8-2.7-11.1-5.3-15.6-7.7-4.5,2.4-9.7,5.1-15.6,7.7-19.8,9-48.5,18.9-80.4,18.9-33,0-65.5-10.3-94.5-25.8-13.4,8.4-33.7,19.3-58.2,25a32,32,0,0,1-14.5-62.3,126.3,126.3,0,0,0,50.6-25.2,32.14,32.14,0,0,1,39.2-1.7h0c22.1,15.2,50.5,26,77.4,26,27.5,0,55-10.6,77.5-26.1A31.84,31.84,0,0,1,315.5,334.9Z"/>
</svg>
