<svg xmlns="http://www.w3.org/2000/svg" height="24" viewBox="0 -960 960 960" width="24"><path d="M212.309-140.001q-29.923 0-51.115-21.193-21.193-21.192-21.193-51.115v-535.382q0-29.923 21.193-51.115 21.192-21.193 51.115-21.193H388.54q8.308-29.23 33.961-48.46Q448.154-887.69 480-887.69q33.076 0 58.422 19.231 25.346 19.23 33.653 48.46h175.616q29.923 0 51.115 21.193 21.193 21.192 21.193 51.115v535.382q0 29.923-21.193 51.115-21.192 21.193-51.115 21.193H212.309Zm0-59.999h535.382q4.616 0 8.463-3.846 3.846-3.847 3.846-8.463v-535.382q0-4.616-3.846-8.463-3.847-3.846-8.463-3.846h-87.692v104.614H300.001V-760h-87.692q-4.616 0-8.463 3.846-3.846 3.847-3.846 8.463v535.382q0 4.616 3.846 8.463 3.847 3.846 8.463 3.846ZM480-755.384q15.461 0 25.807-10.346 10.347-10.346 10.347-25.808 0-15.461-10.347-25.807-10.346-10.346-25.807-10.346-15.461 0-25.807 10.346-10.347 10.346-10.347 25.807 0 15.462 10.347 25.808 10.346 10.346 25.807 10.346Z"/></svg>