<svg xmlns="http://www.w3.org/2000/svg" fill="rgb(229,231,235)" height="24" viewBox="0 -960 960 960" width="24"><path d="M212.309-100.001q-30.308 0-51.308-21t-21-51.308v-535.382q0-30.308 21-51.308t51.308-21h55.385v-84.615h61.537v84.615h303.076v-84.615h59.999v84.615h55.385q30.308 0 51.308 21t21 51.308v535.382q0 30.308-21 51.308t-51.308 21H212.309Zm0-59.999h535.382q4.616 0 8.463-3.846 3.846-3.847 3.846-8.463v-375.382H200v375.382q0 4.616 3.846 8.463 3.847 3.846 8.463 3.846ZM200-607.69h560v-100.001q0-4.616-3.846-8.463-3.847-3.846-8.463-3.846H212.309q-4.616 0-8.463 3.846-3.846 3.847-3.846 8.463v100.001Zm0 0V-720v112.31Zm90.001 197.689v-59.998h379.998v59.998H290.001Zm0 160v-59.998h259.998v59.998H290.001Z"/></svg>
