<svg xmlns="http://www.w3.org/2000/svg" fill="rgb(229,231,235)" height="24" viewBox="0 -960 960 960" width="24"><path d="M320-100.001q-57.749 0-98.874-41.125-41.125-41.125-41.125-98.874v-400q0-57.749 41.125-98.874 41.125-41.125 98.874-41.125h50.001v-80h59.998v80h100.002v-80h59.998v80H640q57.749 0 98.874 41.125 41.125 41.125 41.125 98.874v400q0 57.749-41.125 98.874-41.125 41.125-98.874 41.125H320ZM320-160h320q33 0 56.5-23.5T720-240v-400q0-33-23.5-56.5T640-720H320q-33 0-56.5 23.5T240-640v400q0 33 23.5 56.5T320-160Zm10.001-410.001h299.998v-59.998H330.001v59.998Zm149.934 316.538q37.449 0 63.372-25.615 25.923-25.615 25.923-61.926 0-29.227-16.954-50.22-16.953-20.993-72.276-85.313-56.076 64.307-72.653 85.636-16.577 21.33-16.577 49.77 0 36.438 25.858 62.053 25.858 25.615 63.307 25.615ZM240-720v560-560Z"/></svg>
