<svg xmlns="http://www.w3.org/2000/svg" fill="rgb(107, 114, 128)" height="24" viewBox="0 -960 960 960" width="24"><path d="M432.847-100.001q-30.308 0-57.308-12.77-27-12.769-45.154-36.692L126.617-413.385l14.769-15.769q14.999-16 35.883-19.231 20.885-3.23 39.115 7.923l97.463 52.308v-316.46q0-12.75 8.629-21.375 8.628-8.625 21.384-8.625 12.755 0 21.678 8.625t8.923 21.375v422.381l-120.079-65.385 124.771 162.617q9.847 12.385 24.001 18.693Q417.308-160 432.847-160h196.768q37.615 0 64-26.193Q720-212.385 720-250.001v-150.768q0-20.597-13.933-34.53-13.933-13.932-34.529-13.932H469.847v-59.999h201.691q45.192 0 76.826 31.634 31.635 31.635 31.635 76.827v150.741q0 62.181-44.176 106.104-44.175 43.923-106.208 43.923H432.847ZM188.155-614.615q-11.846-20.077-18.076-42.936-6.231-22.859-6.231-47.063 0-74.923 52.538-127.461t127.46-52.538q74.923 0 127.461 52.538t52.538 127.412q0 24.356-6.231 47.164-6.23 22.807-18.077 42.884l-51.691-29.999q8-14 12-28.5t4-31.5q0-50-35-85t-85-35q-50 0-85 35t-35 85q0 17 4 31.5t12 28.5l-51.691 29.999Zm299.229 280Z"/></svg>
